<mxfile host="app.diagrams.net" modified="2024-06-13T14:40:46.700Z" agent="Mozilla/5.0 (Windows NT 10.0; Win64; x64) AppleWebKit/537.36 (KHTML, like Gecko) Chrome/125.0.0.0 Safari/537.36 Edg/125.0.0.0" etag="iMrXJdII8lAQwnzeattH" version="24.5.4" type="github">
  <diagram name="Page-1" id="gctCrZ24Wkw_mh4w1CaB">
    <mxGraphModel dx="746" dy="433" grid="1" gridSize="10" guides="1" tooltips="1" connect="1" arrows="1" fold="1" page="1" pageScale="1" pageWidth="827" pageHeight="1169" math="0" shadow="0">
      <root>
        <mxCell id="0" />
        <mxCell id="1" parent="0" />
        <mxCell id="KsBrZJXbqQ_UeDBTGDoF-1" value="Closer World Intent Classification" style="rounded=1;whiteSpace=wrap;html=1;" vertex="1" parent="1">
          <mxGeometry x="120" y="420" width="120" height="40" as="geometry" />
        </mxCell>
        <mxCell id="KsBrZJXbqQ_UeDBTGDoF-2" value="Known Intents (m categories)" style="rounded=1;whiteSpace=wrap;html=1;" vertex="1" parent="1">
          <mxGeometry x="120" y="480" width="120" height="30" as="geometry" />
        </mxCell>
        <mxCell id="KsBrZJXbqQ_UeDBTGDoF-5" value="Open World Intent Classification" style="rounded=1;whiteSpace=wrap;html=1;" vertex="1" parent="1">
          <mxGeometry x="270" y="420" width="120" height="40" as="geometry" />
        </mxCell>
        <mxCell id="KsBrZJXbqQ_UeDBTGDoF-6" value="Known (m categories) and Unknown (n categories) Intents" style="rounded=1;whiteSpace=wrap;html=1;" vertex="1" parent="1">
          <mxGeometry x="270" y="480" width="240" height="30" as="geometry" />
        </mxCell>
        <mxCell id="KsBrZJXbqQ_UeDBTGDoF-7" value="" style="endArrow=classic;html=1;rounded=0;exitX=0.5;exitY=0;exitDx=0;exitDy=0;" edge="1" parent="1" source="KsBrZJXbqQ_UeDBTGDoF-1">
          <mxGeometry width="50" height="50" relative="1" as="geometry">
            <mxPoint x="370" y="540" as="sourcePoint" />
            <mxPoint x="180" y="390" as="targetPoint" />
          </mxGeometry>
        </mxCell>
        <mxCell id="KsBrZJXbqQ_UeDBTGDoF-10" value="Open World Intent Classification" style="rounded=1;whiteSpace=wrap;html=1;" vertex="1" parent="1">
          <mxGeometry x="399.88" y="420" width="120" height="40" as="geometry" />
        </mxCell>
      </root>
    </mxGraphModel>
  </diagram>
</mxfile>
